<svg data-v-0dd9719b="" version="1.0" xmlns="http://www.w3.org/2000/svg" xmlns:xlink="http://www.w3.org/1999/xlink"
     width="100%" height="100%" viewBox="0 0 340.000000 250.000000" preserveAspectRatio="xMidYMid meet"
     color-interpolation-filters="sRGB" style="margin: auto;">
    <rect data-v-0dd9719b="" x="0" y="0" width="100%" height="100%" fill="#feffff" fill-opacity="1"
          class="background"></rect>
    <rect data-v-0dd9719b="" x="0" y="0" width="100%" height="100%" fill="url(#watermark)" fill-opacity="1"
          class="watermarklayer"></rect>
    <g data-v-0dd9719b="" fill="#0c0c0c" class="iconlinesvg-g iconlinesvg"
       transform="translate(92.46749877929688,100.05999755859375)">
        <g class="tp-name">
            <g transform="translate(0, 0)">
                <g data-gra="path-name" fill="#0c0c0c" transform="scale(1)">
                    <path d="M6.05 0Q5.50 0 5.17-0.36Q4.84-0.71 4.84-1.26L4.84-1.26L4.84-37.18Q4.84-37.79 5.17-38.14Q5.50-38.50 6.05-38.50L6.05-38.50L19.47-38.50Q25.74-38.50 29.29-35.56Q32.84-32.62 32.84-27.00L32.84-27.00Q32.84-22.82 30.75-20.13Q28.66-17.43 24.91-16.39L24.91-16.39L33.38-1.71Q33.55-1.38 33.55-1.10L33.55-1.10Q33.55-0.66 33.22-0.33Q32.89 0 32.45 0L32.45 0L30.03 0Q29.21 0 28.74-0.39Q28.27-0.77 27.89-1.49L27.89-1.49L19.80-15.56L10.01-15.56L10.01-1.26Q10.01-0.71 9.63-0.36Q9.24 0 8.69 0L8.69 0L6.05 0ZM10.01-20.07L19.25-20.07Q27.55-20.07 27.55-27.06L27.55-27.06Q27.55-34.05 19.25-34.05L19.25-34.05L10.01-34.05L10.01-20.07Z"
                          transform="translate(-4.84, 39.435)"></path>
                </g>
            </g>
            <g transform="translate(32, 0)">
                <g data-gra="path-name" fill="#0c0c0c" transform="scale(1)">
                    <path d="M15.46 0.55Q9.85 0.55 6.49-2.94Q3.14-6.43 2.81-12.48L2.81-12.48L2.75-14.36L2.81-16.17Q3.14-22.11 6.49-25.63Q9.85-29.15 15.46-29.15L15.46-29.15Q21.50-29.15 24.83-25.30Q28.16-21.45 28.16-14.85L28.16-14.85L28.16-13.86Q28.16-13.31 27.80-12.95Q27.45-12.60 26.89-12.60L26.89-12.60L7.81-12.60L7.81-12.10Q7.97-8.53 10.01-6.00Q12.04-3.46 15.40-3.46L15.40-3.46Q17.98-3.46 19.61-4.48Q21.23-5.50 22.05-6.60L22.05-6.60Q22.55-7.26 22.82-7.40Q23.10-7.54 23.76-7.54L23.76-7.54L26.18-7.54Q26.68-7.54 27.03-7.26Q27.39-6.99 27.39-6.54L27.39-6.54Q27.39-5.33 25.91-3.63Q24.42-1.93 21.70-0.69Q18.98 0.55 15.46 0.55L15.46 0.55ZM7.81-16.34L23.16-16.34L23.16-16.50Q23.16-20.35 21.07-22.77Q18.98-25.19 15.46-25.19L15.46-25.19Q11.88-25.19 9.85-22.77Q7.81-20.35 7.81-16.50L7.81-16.50L7.81-16.34Z"
                          transform="translate(-2.75, 39.435)"></path>
                </g>
            </g>
            <g transform="translate(61, 7.128934761675495)">
                <g>
                    <g class="imagesvg">
                        <g>
                            <rect fill="#0c0c0c" fill-opacity="0" stroke-width="2" x="0" y="0" width="23.679216"
                                  height="35.627130476649015" class="image-rect"></rect>
                            <svg x="0" y="0" width="23.679216" height="35.627130476649015" filtersec="colorsb364005633"
                                 class="image-svg-svg primary" style="overflow: visible;">
                                <svg xmlns="http://www.w3.org/2000/svg"
                                     viewBox="0.38165420293807983 0.5612502098083496 65.67435455322266 98.8113021850586">
                                    <path fill="#0C0C0C"
                                          d="M30.024 2.59L.706 70.755a3.023 3.023 0 0 0-.324 1.408v6.817c0 1.187.649 2.38 1.732 2.919l29.428 16.987a3.326 3.326 0 0 0 3.464 0l29.318-17.098c1.084-.648 1.732-1.732 1.732-2.918v-6.818c0-.434-.11-.973-.324-1.407L36.297 2.59c-1.187-2.705-5.086-2.705-6.272 0zm25.64 74.223L38.354 86.77c-2.27 1.297-5.085-.324-5.085-2.919V33.757c0-3.677 5.085-4.76 6.603-1.407l17.312 40.144c.214.435.324.862.324 1.408-.22 1.18-.87 2.263-1.842 2.911z"></path>
                                </svg>
                            </svg> <!---->
                        </g>
                    </g>
                </g>
            </g>
            <g transform="translate(88, 0)">
                <g data-gra="path-name" fill="#0c0c0c" transform="scale(1)">
                    <path d="M5.45 0Q4.90 0 4.54-0.36Q4.18-0.71 4.18-1.26L4.18-1.26L4.18-37.79Q4.18-38.39 4.54-38.72Q4.90-39.05 5.45-39.05L5.45-39.05L7.87-39.05Q8.42-39.05 8.77-38.69Q9.13-38.34 9.13-37.79L9.13-37.79L9.13-1.26Q9.13-0.71 8.77-0.36Q8.42 0 7.87 0L7.87 0L5.45 0Z"
                          transform="translate(-4.18, 39.435)"></path>
                </g>
            </g>
            <g transform="translate(96, 0)">
                <g data-gra="path-name" fill="#0c0c0c" transform="scale(1)">
                    <path d="M4.95-33.99Q4.40-33.99 4.04-34.35Q3.69-34.70 3.69-35.26L3.69-35.26L3.69-38.12Q3.69-38.66 4.04-39.05Q4.40-39.44 4.95-39.44L4.95-39.44L8.20-39.44Q8.74-39.44 9.13-39.05Q9.52-38.66 9.52-38.12L9.52-38.12L9.52-35.26Q9.52-34.70 9.13-34.35Q8.74-33.99 8.20-33.99L8.20-33.99L4.95-33.99ZM5.39 0Q4.84 0 4.48-0.36Q4.13-0.71 4.13-1.26L4.13-1.26L4.13-27.34Q4.13-27.89 4.48-28.24Q4.84-28.60 5.39-28.60L5.39-28.60L7.81-28.60Q8.36-28.60 8.72-28.24Q9.07-27.89 9.07-27.34L9.07-27.34L9.07-1.26Q9.07-0.71 8.72-0.36Q8.36 0 7.81 0L7.81 0L5.39 0Z"
                          transform="translate(-3.685, 39.435)"></path>
                </g>
            </g>
            <g transform="translate(105, 0)">
                <g data-gra="path-name" fill="#0c0c0c" transform="scale(1)">
                    <path d="M15.13 0Q6.60 0 6.60-9.63L6.60-9.63L6.60-24.36L2.25-24.36Q1.71-24.36 1.38-24.70Q1.04-25.02 1.04-25.57L1.04-25.57L1.04-27.34Q1.04-27.89 1.38-28.24Q1.71-28.60 2.25-28.60L2.25-28.60L6.60-28.60L6.60-37.79Q6.60-38.34 6.93-38.69Q7.26-39.05 7.81-39.05L7.81-39.05L10.23-39.05Q10.78-39.05 11.14-38.69Q11.49-38.34 11.49-37.79L11.49-37.79L11.49-28.60L18.32-28.60Q18.86-28.60 19.22-28.24Q19.58-27.89 19.58-27.34L19.58-27.34L19.58-25.57Q19.58-25.02 19.22-24.70Q18.86-24.36 18.32-24.36L18.32-24.36L11.49-24.36L11.49-10.01Q11.49-7.21 12.40-5.78Q13.31-4.34 15.51-4.34L15.51-4.34L18.86-4.34Q19.41-4.34 19.75-3.99Q20.07-3.63 20.07-3.08L20.07-3.08L20.07-1.26Q20.07-0.71 19.75-0.36Q19.41 0 18.86 0L18.86 0L15.13 0Z"
                          transform="translate(-1.045, 39.435)"></path>
                </g>
            </g>
            <g transform="translate(128, 0)">
                <g data-gra="path-name" fill="#0c0c0c" transform="scale(1)">
                    <path d="M9.13 10.45Q8.63 10.45 8.30 10.12Q7.97 9.79 7.97 9.35L7.97 9.35Q7.97 9.19 8.25 8.36L8.25 8.36L12.54-1.71L2.04-26.51Q1.71-27.17 1.71-27.45L1.71-27.45Q1.76-27.94 2.09-28.27Q2.42-28.60 2.86-28.60L2.86-28.60L5.39-28.60Q6.27-28.60 6.71-27.72L6.71-27.72L15.18-7.48L23.87-27.72Q24.31-28.60 25.19-28.60L25.19-28.60L27.66-28.60Q28.11-28.60 28.43-28.27Q28.77-27.94 28.77-27.50L28.77-27.50Q28.77-27.11 28.49-26.51L28.49-26.51L12.93 9.57Q12.65 10.01 12.35 10.23Q12.04 10.45 11.55 10.45L11.55 10.45L9.13 10.45Z"
                          transform="translate(-1.705, 39.435)"></path>
                </g>
            </g>
        </g> <!---->
    </g>
    <defs v-gra="od"></defs>
</svg>